<?xml version="1.0" encoding="utf-8"?>
<svg viewBox="33.8 0 120 150" width="120px" height="150px" xmlns="http://www.w3.org/2000/svg"><defs/><path d="M 94.13 6.108 C 73.69 9.881 60.797 24.241 58.91 45.626 C 57.862 57.68 64.361 76.861 74.738 91.851 C 79.036 98.141 79.14 98.665 76.311 102.229 C 72.433 107.155 74.843 111.977 79.769 108.938 C 81.656 107.679 81.761 107.784 81.133 110.09 C 80.713 111.348 80.084 114.178 79.769 116.274 C 79.245 119.629 79.56 120.362 81.971 121.935 C 83.543 122.983 88.261 124.136 93.082 124.66 C 101.363 125.499 107.756 128.014 107.756 130.531 C 107.756 132.942 105.765 136.61 102.516 140.174 C 100.839 142.166 99.58 144.052 99.895 144.366 C 100.944 145.415 108.596 135.876 109.225 132.626 C 109.853 129.378 108.491 126.652 106.185 126.652 C 105.346 126.652 104.613 126.128 104.403 125.499 C 104.193 124.766 100.525 123.926 96.227 123.612 C 85.64 122.669 82.076 120.783 82.285 116.379 C 82.39 114.074 83.333 111.977 85.221 110.3 L 88.05 107.679 L 90.461 109.881 C 92.453 111.767 92.873 111.872 94.13 110.51 C 95.388 108.938 95.178 107.574 92.558 101.391 C 92.138 100.132 93.082 98.979 96.437 96.988 C 98.952 95.52 106.394 89.022 113.103 82.418 C 124.004 71.725 125.472 69.839 128.407 62.711 C 137.002 41.852 135.22 22.984 123.794 13.55 C 116.248 7.261 103.983 4.22 94.13 6.108 Z M 112.579 9.777 C 118.973 11.663 124.738 16.275 128.512 22.669 C 131.132 27.281 131.341 28.434 131.237 38.602 C 131.237 48.455 130.817 50.447 127.777 58.309 C 125.472 64.178 122.641 68.895 119.496 72.459 C 112.998 79.797 98.742 92.794 93.816 95.939 C 89.623 98.56 89.309 99.818 91.509 105.059 C 92.244 106.736 92.138 106.841 90.042 105.688 C 88.05 104.639 87.316 104.744 85.64 106.317 C 84.592 107.26 83.648 107.679 83.648 107.155 C 83.648 106.631 83.124 105.479 82.6 104.639 C 81.656 103.277 81.237 103.486 79.56 105.688 C 78.407 107.155 77.149 107.994 76.73 107.574 C 76.311 107.155 77.254 105.164 78.826 103.172 C 80.294 101.181 81.552 99.084 81.552 98.455 C 81.552 97.931 79.455 94.367 76.835 90.594 C 66.772 76.233 60.272 56.736 61.74 44.891 C 62.893 34.095 63.836 31.369 68.029 24.975 C 72.852 17.953 80.188 12.501 88.575 9.881 C 95.178 7.889 106.08 7.784 112.579 9.777 Z" fill="#000000" style="stroke-miterlimit: 30; stroke: rgb(0, 0, 0); stroke-width: 5px;"/></svg>